:FULLY-SPECIFIED
:FORCE-ALL-JOINTS-BE-3DOF
:DEGREES
2650
root -1.75996 15.0949 -28.5927 162.22 -75.5978 -166.732
lfemur -35.4949 27.0071 -3.4221
ltibia 59.1385 -0 0
lfoot 11.3255 12.674 -0.205543
ltoes -0.609056 0 0
rfemur -34.381 -21.3201 20.5898
rtibia 70.5376 -0 0
rfoot -23.1815 -12.3503 -0.0660844
rtoes -6.24249 0 0
lowerback 16.3318 4.01461 0.795734
upperback -0.864507 5.60168 1.3426
thorax -9.88661 2.65733 -0.280842
lowerneck -2.96137 7.80456 0.780496
upperneck 6.59638 10.2214 1.85825
head 2.68666 5.16259 0.841962
lclavicle -7.76456e-14 -1.07344e-14 0
lhumerus 18.1662 -25.5429 74.5292
lradius 115.105 -0 0
lwrist 1.33584 0 0
lhand -36.1608 32.94 0.551736
lfingers 7.12502 -0 0
lthumb -9.26097 62.587 0.547522
rclavicle -7.76456e-14 -1.07344e-14 0
rhumerus -25.9136 51.5748 -84.2904
rradius 105.627 -0 0
rwrist -50.5656 0 0
rhand -8.93192 -24.1868 0.272638
rfingers 7.12502 -0 0
rthumb 16.9905 -53.1091 0.336289
2651
root -1.87331 15.0954 -28.5656 163.956 -73.9444 -168.659
lfemur -35.6317 27.3667 -3.22129
ltibia 57.388 -0 0
lfoot 12.3764 12.5552 -0.19416
ltoes 0.515565 -0 0
rfemur -33.862 -20.9714 20.35
rtibia 70.629 -0 0
rfoot -23.5566 -12.2435 -0.0624407
rtoes -6.31897 0 0
lowerback 16.2912 4.21045 1.0114
upperback -0.870016 5.89413 1.24835
thorax -9.85233 2.78331 -0.5757
lowerneck -2.91055 8.08444 1.00009
upperneck 6.76688 10.5938 1.69406
head 2.74675 5.34661 0.767222
lclavicle -7.76456e-14 -1.07344e-14 0
lhumerus 16.3755 -23.3214 75.2326
lradius 114.685 -0 0
lwrist -0.907691 0 0
lhand -36.7101 32.3304 0.521242
lfingers 7.12502 -0 0
lthumb -9.79115 61.9603 0.517262
rclavicle -7.76456e-14 -1.07344e-14 0
rhumerus -27.4985 52.3956 -85.5376
rradius 106.752 -0 0
rwrist -54.1322 0 0
rhand -8.08702 -23.991 0.257564
rfingers 7.12502 -0 0
rthumb 17.8045 -52.8584 0.317699
2652
root -1.98665 15.0958 -28.5384 165.316 -72.3243 -170.205
lfemur -35.7638 27.7167 -3.02637
ltibia 55.6862 -0 0
lfoot 13.398 12.4399 -0.181008
ltoes 1.60888 -0 0
rfemur -33.36 -20.6305 20.1206
rtibia 70.7179 -0 0
rfoot -23.9213 -12.1397 -0.0582282
rtoes -6.39333 0 0
lowerback 16.2525 4.40099 1.22098
upperback -0.875838 6.17844 1.15665
thorax -9.81963 2.90595 -0.862309
lowerneck -2.86007 8.35634 1.21396
upperneck 6.9318 10.9562 1.53532
head 2.80496 5.52558 0.694727
lclavicle -7.76456e-14 -1.07344e-14 0
lhumerus 14.6899 -21.1438 75.834
lradius 114.277 -0 0
lwrist -3.08877 0 0
lhand -37.2437 31.7381 0.485999
lfingers 7.12502 -0 0
lthumb -10.3062 61.3514 0.482288
rclavicle -7.76456e-14 -1.07344e-14 0
rhumerus -29.0961 53.1724 -86.8084
rradius 107.847 -0 0
rwrist -57.5995 0 0
rhand -7.2657 -23.8008 0.240144
rfingers 7.12502 -0 0
rthumb 18.5958 -52.6149 0.296213
2653
root -2.09999 15.0963 -28.5112 166.398 -70.7503 -171.468
lfemur -35.8905 28.0552 -2.83832
ltibia 54.042 -0 0
lfoot 14.385 12.3288 -0.16635
ltoes 2.6652 -0 0
rfemur -32.8774 -20.2994 19.9025
rtibia 70.8037 -0 0
rfoot -24.2736 -12.0394 -0.0535308
rtoes -6.46517 0 0
lowerback 16.2157 4.58521 1.4234
upperback -0.881901 6.45311 1.06798
thorax -9.78861 3.0246 -1.13918
lowerneck -2.81029 8.61886 1.42097
upperneck 7.09035 11.3068 1.38278
head 2.86099 5.69856 0.624837
lclavicle -7.76456e-14 -1.07344e-14 0
lhumerus 13.1065 -19.0254 76.3427
lradius 113.883 -0 0
lwrist -5.19604 0 0
lhand -37.7589 31.1662 0.446713
lfingers 7.12502 -0 0
lthumb -10.8035 60.7634 0.443302
rclavicle -7.76456e-14 -1.07344e-14 0
rhumerus -30.6947 53.902 -88.0927
rradius 108.905 -0 0
rwrist -60.9495 0 0
rhand -6.47224 -23.6174 0.220725
rfingers 7.12502 -0 0
rthumb 19.3602 -52.38 0.272264
2654
root -2.21333 15.0967 -28.4841 167.27 -69.2335 -172.514
lfemur -36.0113 28.3804 -2.6581
ltibia 52.4642 -0 0
lfoot 15.3321 12.2224 -0.150488
ltoes 3.67883 -0 0
rfemur -32.4166 -19.98 19.6965
rtibia 70.8861 -0 0
rfoot -24.6117 -11.9432 -0.0484437
rtoes -6.53411 0 0
lowerback 16.181 4.76211 1.61757
upperback -0.888125 6.71667 0.982819
thorax -9.75939 3.13859 -1.40484
lowerneck -2.76158 8.8706 1.61997
upperneck 7.24179 11.6436 1.23716
head 2.91458 5.86462 0.557911
lclavicle -7.76456e-14 -1.07344e-14 0
lhumerus 11.6236 -16.981 76.7673
lradius 113.505 -0 0
lwrist -7.21815 0 0
lhand -38.2529 30.6178 0.404183
lfingers 7.12502 -0 0
lthumb -11.2802 60.1995 0.401096
rclavicle -7.76456e-14 -1.07344e-14 0
rhumerus -32.2813 54.5814 -89.3788
rradius 109.919 -0 0
rwrist -64.1641 0 0
rhand -5.7109 -23.4416 0.199705
rfingers 7.12502 -0 0
rthumb 20.0936 -52.1549 0.246338
2655
root -2.32668 15.0971 -28.4569 167.979 -67.7846 -173.39
lfemur -36.1256 28.6903 -2.4867
ltibia 50.9617 -0 0
lfoot 16.234 12.1214 -0.13375
ltoes 4.64408 -0 0
rfemur -31.9798 -19.6744 19.5032
rtibia 70.9646 -0 0
rfoot -24.9337 -11.8517 -0.0430719
rtoes -6.59976 0 0
lowerback 16.1485 4.93067 1.80243
upperback -0.894421 6.96765 0.901651
thorax -9.73205 3.24726 -1.65778
lowerneck -2.71435 9.11017 1.80979
upperneck 7.38536 11.9647 1.09917
head 2.96544 6.02281 0.494307
lclavicle -7.76456e-14 -1.07344e-14 0
lhumerus 10.2401 -15.0253 77.1166
lradius 113.144 -0 0
lwrist -9.14374 0 0
lhand -38.7229 30.0959 0.359292
lfingers 7.12502 -0 0
lthumb -11.7338 59.6628 0.356547
rclavicle -7.76456e-14 -1.07344e-14 0
rhumerus -33.8413 55.2085 -90.6538
rradius 110.886 -0 0
rwrist -67.2253 0 0
rhand -4.98597 -23.2745 0.177519
rfingers 7.12502 -0 0
rthumb 20.7919 -51.9409 0.218973
2656
root -2.44002 15.0976 -28.4297 168.56 -66.4136 -174.129
lfemur -36.2328 28.9832 -2.32508
ltibia 49.5434 -0 0
lfoot 17.0853 12.0263 -0.116493
ltoes 5.55526 -0 0
rfemur -31.5692 -19.3847 19.3234
rtibia 71.0387 -0 0
rfoot -25.2376 -11.7653 -0.0375291
rtoes -6.66173 0 0
lowerback 16.1184 5.08989 1.97688
upperback -0.900697 7.20455 0.824964
thorax -9.70668 3.34996 -1.89654
lowerneck -2.66899 9.33618 1.98929
upperneck 7.52032 12.2681 0.969508
head 3.01331 6.17219 0.434378
lclavicle -7.76456e-14 -1.07344e-14 0
lhumerus 8.95628 -13.1722 77.399
lradius 112.804 -0 0
lwrist -10.9615 0 0
lhand -39.1662 29.6036 0.31299
lfingers 7.12502 -0 0
lthumb -12.1616 59.1566 0.310599
rclavicle -7.76456e-14 -1.07344e-14 0
rhumerus -35.3589 55.7817 -91.9032
rradius 111.798 -0 0
rwrist -70.115 0 0
rhand -4.30171 -23.117 0.154637
rfingers 7.12502 -0 0
rthumb 21.451 -51.7392 0.19075
2657
root -2.55336 15.098 -28.4026 169.037 -65.13 -174.754
lfemur -36.3324 29.2571 -2.1742
ltibia 48.2182 -0 0
lfoot 17.8807 11.9376 -0.0990915
ltoes 6.40667 -0 0
rfemur -31.187 -19.1129 19.1576
rtibia 71.1079 -0 0
rfoot -25.5216 -11.6846 -0.0319358
rtoes -6.71963 0 0
lowerback 16.0906 5.23874 2.13986
upperback -0.906854 7.42591 0.753246
thorax -9.68335 3.44601 -2.11961
lowerneck -2.62594 9.54723 2.15728
upperneck 7.64593 12.5519 0.848879
head 3.05791 6.31182 0.378477
lclavicle -7.76456e-14 -1.07344e-14 0
lhumerus 7.77326 -11.4356 77.6227
lradius 112.487 -0 0
lwrist -12.66 0 0
lhand -39.58 29.1439 0.266285
lfingers 7.12502 -0 0
lthumb -12.5609 58.6839 0.264251
rclavicle -7.76456e-14 -1.07344e-14 0
rhumerus -36.8173 56.3 -93.1116
rradius 112.65 -0 0
rwrist -72.8151 0 0
rhand -3.66239 -22.9701 0.131558
rfingers 7.12502 -0 0
rthumb 22.0667 -51.551 0.162283
2658
root -2.66671 15.0985 -28.3754 169.43 -63.9434 -175.285
lfemur -36.4239 29.5102 -2.03506
ltibia 46.9948 -0 0
lfoot 18.615 11.856 -0.0819372
ltoes 7.19263 -0 0
rfemur -30.8356 -18.8611 19.0065
rtibia 71.1718 -0 0
rfoot -25.7837 -11.6101 -0.0264175
rtoes -6.77309 0 0
lowerback 16.0654 5.37622 2.29027
upperback -0.912788 7.63025 0.686988
thorax -9.66216 3.53476 -2.32552
lowerneck -2.58561 9.74195 2.3126
upperneck 7.76146 12.8141 0.737972
head 3.09896 6.44075 0.326958
lclavicle -7.76456e-14 -1.07344e-14 0
lhumerus 6.69329 -9.82875 77.7958
lradius 112.193 -0 0
lwrist -14.2279 0 0
lhand -39.9616 28.7199 0.220227
lfingers 7.12502 -0 0
lthumb -12.9292 58.2478 0.218545
rclavicle -7.76456e-14 -1.07344e-14 0
rhumerus -38.1984 56.7628 -94.2627
rradius 113.437 -0 0
rwrist -75.3076 0 0
rhand -3.07227 -22.8347 0.108799
rfingers 7.12502 -0 0
rthumb 22.6351 -51.3775 0.13421
2659
root -2.78005 15.0989 -28.3482 169.752 -62.863 -175.733
lfemur -36.5067 29.7405 -1.90861
ltibia 45.8821 -0 0
lfoot 19.2827 11.782 -0.0654288
ltoes 7.90743 -0 0
rfemur -30.517 -18.6313 18.8707
rtibia 71.2299 -0 0
rfoot -26.0221 -11.5424 -0.0211029
rtoes -6.8217 0 0
lowerback 16.0427 5.50131 2.42705
upperback -0.918394 7.81608 0.626682
thorax -9.64315 3.61554 -2.51278
lowerneck -2.54845 9.91895 2.45405
upperneck 7.86619 13.0528 0.637475
head 3.13621 6.55804 0.280172
lclavicle -7.76456e-14 -1.07344e-14 0
lhumerus 5.71957 -8.36486 77.9259
lradius 111.927 -0 0
lwrist -15.6538 0 0
lhand -40.3084 28.3345 0.175887
lfingers 7.12502 -0 0
lthumb -13.2638 57.8514 0.174544
rclavicle -7.76456e-14 -1.07344e-14 0
rhumerus -39.4839 57.1701 -95.3394
rradius 114.153 -0 0
rwrist -77.5746 0 0
rhand -2.53563 -22.7118 0.0868911
rfingers 7.12502 -0 0
rthumb 23.1519 -51.22 0.107187
2660
root -2.89339 15.0994 -28.3211 170.015 -61.8977 -176.109
lfemur -36.5802 29.9462 -1.79583
ltibia 44.8891 -0 0
lfoot 19.8787 11.7161 -0.0499674
ltoes 8.5454 -0 0
rfemur -30.2335 -18.4256 18.7508
rtibia 71.2817 -0 0
rfoot -26.2348 -11.482 -0.0161218
rtoes -6.86509 0 0
lowerback 16.0227 5.613 2.54911
upperback -0.923567 7.98193 0.57282
thorax -9.62641 3.68769 -2.6799
lowerneck -2.51489 10.0768 2.58046
upperneck 7.95939 13.2659 0.548077
head 3.16938 6.66274 0.238471
lclavicle -7.76456e-14 -1.07344e-14 0
lhumerus 4.8562 -7.05666 78.0205
lradius 111.688 -0 0
lwrist -16.9265 0 0
lhand -40.6177 27.9908 0.134345
lfingers 7.12502 -0 0
lthumb -13.5622 57.4979 0.133319
rclavicle -7.76456e-14 -1.07344e-14 0
rhumerus -40.655 57.5224 -96.3246
rradius 114.791 -0 0
rwrist -79.5978 0 0
rhand -2.05671 -22.6023 0.0663668
rfingers 7.12502 -0 0
rthumb 23.6131 -51.0797 0.0818692
2661
root -3.00674 15.0998 -28.2939 170.227 -61.0568 -176.419
lfemur -36.644 30.1253 -1.6977
ltibia 44.0245 -0 0
lfoot 20.3975 11.6589 -0.0359487
ltoes 9.10083 -0 0
rfemur -29.9873 -18.2461 18.6474
rtibia 71.3269 -0 0
rfoot -26.4201 -11.4294 -0.0116024
rtoes -6.90287 0 0
lowerback 16.0055 5.71028 2.65536
upperback -0.9282 8.12632 0.525896
thorax -9.61201 3.75055 -2.8254
lowerneck -2.48537 10.2142 2.69065
upperneck 8.04031 13.4516 0.47047
head 3.1982 6.75392 0.202207
lclavicle -7.76456e-14 -1.07344e-14 0
lhumerus 4.10812 -5.91667 78.0865
lradius 111.481 -0 0
lwrist -18.0346 0 0
lhand -40.8868 27.6917 0.0966682
lfingers 7.12502 -0 0
lthumb -13.8218 57.1903 0.0959297
rclavicle -7.76456e-14 -1.07344e-14 0
rhumerus -41.6929 57.8201 -97.2008
rradius 115.348 -0 0
rwrist -81.3593 0 0
rhand -1.63979 -22.5071 0.0477529
rfingers 7.12502 -0 0
rthumb 24.0146 -50.9577 0.0589079
2662
root -3.12008 15.1002 -28.2668 170.394 -60.349 -176.669
lfemur -36.6974 30.2761 -1.61519
ltibia 43.2973 -0 0
lfoot 20.834 11.6108 -0.0237557
ltoes 9.56804 -0 0
rfemur -29.7807 -18.0948 18.5611
rtibia 71.3649 -0 0
rfoot -26.5759 -11.3852 -0.00766923
rtoes -6.93464 0 0
lowerback 15.9912 5.79213 2.74473
upperback -0.932191 8.24777 0.486403
thorax -9.60002 3.80345 -2.94778
lowerneck -2.46032 10.3298 2.78342
upperneck 8.10823 13.6079 0.405352
head 3.22241 6.83064 0.171734
lclavicle -7.76456e-14 -1.07344e-14 0
lhumerus 3.48099 -4.95715 78.1303
lradius 111.307 -0 0
lwrist -18.9666 0 0
lhand -41.1129 27.4403 0.0638887
lfingers 7.12502 -0 0
lthumb -14.04 56.9317 0.0634006
rclavicle -7.76456e-14 -1.07344e-14 0
rhumerus -42.5792 58.0639 -97.9513
rradius 115.815 -0 0
rwrist -82.841 0 0
rhand -1.28911 -22.4271 0.0315595
rfingers 7.12502 -0 0
rthumb 24.3522 -50.8552 0.038932
